PathFileType	4	(X/Y/Z)	C:/Users/opensim2020/Desktop/walking_exp_matlab/subject02_walking13_straight_04.trc	
DataRate	CameraRate	NumFrames	NumMarkers	Units	OrigDataRate	OrigDataStartFrame	OrigNumFrames	
100.00	100.00	4	41	mm	100.00	1765	118	
Frame#	Time	LFHD			RFHD			LBHD			RBHD			C7			T10			CLAV			STRN			RBAK			LSHO			LUPA			LELB			LFRM			LWRA			LWRB			LFIN			RSHO			RUPA			RELB			RFRM			RWRA			RWRB			RFIN			LASI			RASI			LPSI			RPSI			LTHI			LKNE			LTIB			LANK			LHEE			LTOE			RTHI			RKNE			RTIB			RANK			RHEE			RTOE			*39			*40			
		X1	Y1	Z1	X2	Y2	Z2	X3	Y3	Z3	X4	Y4	Z4	X5	Y5	Z5	X6	Y6	Z6	X7	Y7	Z7	X8	Y8	Z8	X9	Y9	Z9	X10	Y10	Z10	X11	Y11	Z11	X12	Y12	Z12	X13	Y13	Z13	X14	Y14	Z14	X15	Y15	Z15	X16	Y16	Z16	X17	Y17	Z17	X18	Y18	Z18	X19	Y19	Z19	X20	Y20	Z20	X21	Y21	Z21	X22	Y22	Z22	X23	Y23	Z23	X24	Y24	Z24	X25	Y25	Z25	X26	Y26	Z26	X27	Y27	Z27	X28	Y28	Z28	X29	Y29	Z29	X30	Y30	Z30	X31	Y31	Z31	X32	Y32	Z32	X33	Y33	Z33	X34	Y34	Z34	X35	Y35	Z35	X36	Y36	Z36	X37	Y37	Z37	X38	Y38	Z38	X39	Y39	Z39	X40	Y40	Z40	X41	Y41	Z41	

30	0.290	1456.94641	447.31781	1738.94775	1315.97424	467.15903	1716.19922	1483.74854	582.75739	1678.37598	1345.08325	614.38220	1655.66858	1413.87952	655.65570	1531.75940	1410.45886	700.92261	1252.10022	1426.13232	514.35687	1467.81104	1418.90344	456.63449	1298.60327	1350.46680	709.04999	1351.30200	1592.81189	588.75470	1508.07422	1689.79102	601.57983	1312.29028	1712.99939	605.99017	1174.46277	1739.33484	599.47113	1045.68799	1713.74060	555.72839	913.35669	1755.41736	592.82373	923.30347	1762.35144	575.10547	859.15295	1229.72400	583.06146	1499.90747	1147.51294	608.23901	1308.84326	1131.64832	586.55981	1160.54871	1123.35571	532.92139	1050.37842	1153.12341	455.03375	943.30157	1122.13904	498.67551	924.37683	1125.37463	444.41699	874.88586	1550.38989	472.41888	1000.64703	1298.62463	476.89188	978.11804	1475.45166	681.39929	1046.62524	1360.03455	686.00262	1038.10168	1614.46155	539.67615	686.67822	1587.74646	569.24255	484.68390	1591.03296	629.79193	297.97940	1558.61584	628.30322	73.42997	1508.97473	664.73810	44.82478	1570.30310	471.69254	35.45516	1240.20129	498.10931	668.22046	1267.98047	453.04648	479.03259	1277.41663	587.73053	358.04971	1323.06213	713.79395	217.28996	1387.37158	765.73688	190.61975	1294.52283	635.96204	82.44714	1377.00842	552.67804	1812.07886	-3360.43506	2845.24561	1034.16272 
31	0.300	1458.17041	434.09335	1739.31555	1317.17480	454.19315	1716.38757	1484.99109	569.44635	1678.77808	1346.39978	601.31964	1655.96130	1415.49951	642.69006	1532.29480	1413.14050	688.51257	1252.78247	1427.30200	501.43307	1468.15857	1420.40735	444.16003	1298.65759	1352.69226	696.67072	1352.04382	1594.23083	575.21716	1509.41516	1693.39954	584.12152	1314.75562	1719.36475	584.81854	1177.07813	1746.41479	572.80249	1048.40820	1722.50732	523.05774	918.60657	1763.42822	561.22345	926.67126	1771.58594	540.15344	864.07532	1231.06641	570.56311	1499.68921	1149.38025	596.70166	1308.98865	1133.46143	578.36041	1160.48730	1124.90613	527.64166	1048.92542	1154.66931	453.18448	939.31366	1123.20398	497.45126	921.95135	1126.69495	444.62317	870.30182	1553.14185	461.98691	1000.30377	1302.60535	464.18518	979.69336	1476.67688	669.97876	1046.81335	1361.06787	674.26202	1038.92847	1615.38684	534.30090	686.06061	1588.30505	567.54187	484.60599	1590.97449	629.84625	298.49442	1558.59656	628.48553	73.74546	1508.69019	664.64294	44.79354	1570.31677	471.75491	35.39127	1241.04797	480.32745	671.27405	1270.43982	430.34134	481.96249	1280.03223	559.40387	353.99527	1326.63135	678.13251	207.25073	1390.81592	729.03802	177.47595	1299.14807	592.18390	77.68373	1377.94861	539.29614	1812.19580	-3360.42944	2845.27417	1034.36182 
32	0.310	1459.01685	420.70303	1739.19849	1318.10510	440.98978	1716.13794	1486.13965	556.05652	1678.83923	1347.67944	588.26477	1655.85901	1417.06665	629.68420	1532.50183	1415.57532	676.13654	1253.19019	1428.46240	488.76181	1468.01086	1422.32288	432.15912	1298.55176	1354.65295	684.25104	1352.42847	1595.41565	561.56604	1510.20496	1697.03979	566.84595	1316.92444	1725.37769	563.54852	1179.36084	1753.80542	546.32178	1051.59399	1730.88770	490.25787	924.19305	1771.09106	529.41937	930.38702	1780.01184	505.05634	869.04388	1232.67883	558.19904	1499.22302	1150.67004	587.31799	1308.75720	1135.17798	570.18500	1160.10498	1126.22876	522.03241	1047.32886	1156.07275	451.29391	935.31061	1123.89099	495.68680	919.38123	1128.16101	444.89038	866.14386	1556.79822	451.73456	1000.02277	1306.63354	451.43640	980.74207	1477.68005	658.62427	1046.65527	1361.74304	662.47083	1039.41870	1616.00720	528.03400	685.39325	1589.03625	564.84637	484.44751	1591.19080	628.59021	298.74484	1558.41199	628.47131	73.79649	1508.73730	664.92773	45.18587	1570.36987	471.80762	35.34071	1241.74243	462.89246	673.69922	1272.84290	408.46548	484.62979	1282.42651	530.84662	349.17657	1329.58459	641.46906	196.39650	1393.83960	690.82172	163.45381	1303.07324	547.24939	73.24691	1379.05676	526.10669	1812.25244	-3357.47266	2845.82324	1034.30432 
33	0.320	1459.64160	407.35358	1738.67810	1318.91663	427.92609	1715.52734	1487.24951	542.67401	1678.64758	1348.87292	575.13470	1655.46240	1418.53259	616.66376	1532.47107	1417.73816	663.77014	1253.24609	1429.70166	475.77441	1467.76843	1424.04602	419.80978	1298.01477	1356.83374	672.07489	1352.66162	1596.62756	548.00562	1510.64746	1700.41980	549.79114	1318.85779	1731.65515	542.73340	1181.81726	1760.80823	519.77246	1054.70605	1738.77771	457.36484	930.04297	1778.31238	497.45737	934.29779	1788.19299	470.55356	874.57159	1233.98767	545.73431	1498.23425	1152.87207	577.15991	1308.00842	1136.71826	562.00366	1159.41370	1127.60156	517.18585	1045.45129	1157.34924	449.53992	931.27386	1124.66333	494.05823	916.81311	1129.02698	444.92465	861.80487	1560.03613	442.24854	998.87683	1310.55981	438.59418	981.25793	1478.29480	647.46747	1046.17712	1362.24377	650.61121	1039.66614	1616.65564	522.40057	684.73663	1589.50891	561.49866	484.03949	1591.51318	626.20459	298.72681	1558.29517	628.35663	73.85706	1508.36658	664.66785	45.02259	1570.44104	471.83578	35.25810	1242.39758	445.71069	676.01398	1275.05835	387.29681	486.97125	1284.55884	502.21906	343.83942	1332.68677	604.60858	185.20280	1396.39343	651.34955	149.01134	1306.51172	501.82742	69.05294	1379.75488	512.71246	1811.79272	-3357.26880	2845.83325	1034.30969 
